<svg xmlns="http://www.w3.org/2000/svg" width="612" height="612" viewBox="0 0 612 612"><circle fill="#EFEFEF" cx="306" cy="306" r="306"/><path fill="#1A6191" d="M149.472 261.019l140.87 63.327c12.452 5.875 17.816 5.875 31.307 0l140.87-63.327c10.377-4.835 10.719-25.401 0-31.274l-140.87-74.379c-11.063-6.558-18.854-6.216-31.307 0l-140.87 74.379c-10.719 6.91-11.062 25.401 0 31.274zm0 66.338l140.87 63.325c12.452 5.874 17.816 5.874 31.307 0l140.87-63.325c6.962-3.239 9.505-18.48 9.505-26.69-9.06 4.535-21.885 10.999-22.134 11.051L306 378.055l-143.89-66.337c.498.302-12.731-5.675-22.132-11.051-.001 8.021 2.012 22.726 9.494 26.69zM306 444.392l-143.89-66.337c.498.302-12.731-5.675-22.132-11.051 0 8.021 2.013 22.726 9.495 26.688l140.87 63.327c12.452 5.874 17.816 5.874 31.307 0l140.87-63.327c6.962-3.237 9.505-18.479 9.505-26.688-9.06 4.534-21.885 10.999-22.134 11.051L306 444.392z"/></svg>