<?xml version="1.0" encoding="utf-8"?>
<!-- Generator: Adobe Illustrator 15.0.0, SVG Export Plug-In . SVG Version: 6.00 Build 0)  -->
<!DOCTYPE svg PUBLIC "-//W3C//DTD SVG 1.1//EN" "http://www.w3.org/Graphics/SVG/1.1/DTD/svg11.dtd">
<svg version="1.1" id="Capa_1" xmlns="http://www.w3.org/2000/svg" xmlns:xlink="http://www.w3.org/1999/xlink" x="0px" y="0px"
	 width="612px" height="612px" viewBox="0 0 612 612" enable-background="new 0 0 612 612" xml:space="preserve">
<circle fill="#EFEFEF" cx="306" cy="306" r="306"/>
<g>
	<g id="_x32__39_">
		<g>
			<path fill="#1A6191" d="M149.472,261.019l140.87,63.327c12.452,5.875,17.816,5.875,31.307,0l140.87-63.327
				c10.377-4.835,10.719-25.401,0-31.274l-140.87-74.379c-11.063-6.558-18.854-6.216-31.307,0l-140.87,74.379
				C138.753,236.655,138.41,255.146,149.472,261.019z M149.472,327.357l140.87,63.325c12.452,5.874,17.816,5.874,31.307,0
				l140.87-63.325c6.962-3.239,9.505-18.48,9.505-26.69c-9.06,4.535-21.885,10.999-22.134,11.051L306,378.055L162.11,311.718
				c0.498,0.302-12.731-5.675-22.132-11.051C139.977,308.688,141.99,323.393,149.472,327.357z M306,444.392L162.11,378.055
				c0.498,0.302-12.731-5.675-22.132-11.051c0,8.021,2.013,22.726,9.495,26.688l140.87,63.327c12.452,5.874,17.816,5.874,31.307,0
				l140.87-63.327c6.962-3.237,9.505-18.479,9.505-26.688c-9.06,4.534-21.885,10.999-22.134,11.051L306,444.392z"/>
		</g>
	</g>
</g>
</svg>
