<svg xmlns="http://www.w3.org/2000/svg" width="460.299" height="460.297" viewBox="0 0 460.299 460.297"><g fill="#CCC"><path d="M230.149 120.939L65.986 256.273c0 .191-.048.473-.145.855-.094.38-.144.656-.144.852v137.041c0 4.948 1.809 9.236 5.426 12.848 3.616 3.613 7.898 5.431 12.848 5.431h109.63V303.664h73.097v109.641h109.629c4.948 0 9.236-1.814 12.848-5.436 3.617-3.607 5.432-7.898 5.432-12.848V257.98c0-.76-.104-1.334-.288-1.707l-164.17-135.334z"/><path d="M457.122 225.438L394.6 173.476V56.989c0-2.663-.856-4.854-2.574-6.567-1.704-1.712-3.894-2.568-6.563-2.568h-54.816c-2.666 0-4.855.856-6.57 2.568-1.711 1.714-2.565 3.905-2.565 6.567v55.673L251.85 54.417c-6.084-4.949-13.318-7.423-21.694-7.423-8.375 0-15.608 2.474-21.698 7.423L3.172 225.438c-1.902 1.52-2.945 3.566-3.14 6.136-.193 2.568.472 4.811 1.997 6.713l17.701 21.128c1.524 1.712 3.521 2.759 5.996 3.142 2.285.192 4.569-.476 6.854-1.998L230.149 95.817l197.57 164.742c1.525 1.327 3.521 1.99 5.996 1.99h.857c2.472-.376 4.463-1.43 5.996-3.138l17.703-21.125c1.522-1.906 2.189-4.146 1.991-6.716-.194-2.563-1.241-4.609-3.14-6.132z"/></g></svg>