<svg xmlns="http://www.w3.org/2000/svg" viewBox="0 0 506.291 506.291"><path d="M368.272 192.509c28.567 0 51.808-23.242 51.808-51.811 0-28.567-23.24-51.809-51.808-51.809-28.56 0-51.794 23.241-51.794 51.809 0 28.569 23.235 51.811 51.794 51.811z"/><path d="M481.213 286.272l-17.794-24.262c-4.061-5.537-10.817-14.353-15.062-19.651L422.1 209.556c-3.808-4.758-7.757-8.145-15.335-8.145l-62.066-.081-40.299-27.389c-4.481-3.046-11.882-8.982-15.836-12.703l-4.62-4.349h8.329c1.467 0 2.771-.607 3.576-1.668.806-1.06 1.042-2.479.65-3.892l-5.479-19.713c-.737-2.653-3.473-4.731-6.227-4.731h-14.111l-3.521-21.349 18.567-12.379c4.457-2.971 8.269-8.268 10.38-13.866 15.156-1.346 27.081-14.105 27.081-29.605 0-20.962-5.799-29.708-19.957-29.987l3.439-13.439c.405-1.581.103-3.176-.827-4.374C304.913.688 303.443 0 301.811 0h-96.539c-1.632 0-3.102.688-4.032 1.886-.931 1.198-1.232 2.793-.827 4.375l3.441 13.438c-14.214.249-20.033 8.988-20.033 29.989 0 15.501 11.926 28.261 27.083 29.605 2.11 5.598 5.923 10.895 10.379 13.865l18.637 12.425-3.513 21.302h-12.106c-2.755 0-5.489 2.078-6.226 4.731l-5.479 19.714c-.392 1.413-.155 2.831.65 3.892.806 1.059 2.109 1.667 3.576 1.667h6.244l-4.62 4.349c-3.952 3.719-11.352 9.655-15.834 12.703l-40.301 27.389-60.991.042c-7.811 0-12.945 2.997-17.128 8.223l-26.258 32.802c-4.247 5.305-11.005 14.121-15.063 19.654l-17.793 24.262a21.782 21.782 0 0 0-3.989 16.3 21.783 21.783 0 0 0 8.703 14.346 21.763 21.763 0 0 0 12.95 4.245c6.966 0 13.581-3.35 17.695-8.959l15.949-21.748-3.496 39.069-30.774 146.156a22.96 22.96 0 0 0 3.257 17.388 22.963 22.963 0 0 0 14.598 9.992c1.574.333 3.184.502 4.786.502 10.855 0 20.359-7.721 22.598-18.358l28.801-136.778h7.5l4.113 46.168c.494 5.544.743 15.29.533 20.857l-2.424 64.117a22.96 22.96 0 0 0 6.148 16.589 22.97 22.97 0 0 0 16.081 7.384 23.036 23.036 0 0 0 23.969-22.226l2.424-64.114c.284-7.497-.015-19.23-.682-26.71l-6.151-69.033c-.017-.189-.055-.369-.076-.557l6.689-74.731 52.982-36.007c6.328-4.3 15.657-11.783 21.238-17.035l5.007-4.713 5.005 4.711c5.576 5.25 14.906 12.734 21.24 17.039l49.154 33.406 6.921 77.33c-.021.186-.06.368-.076.557l-6.151 69.031c-.666 7.468-.973 19.188-.698 26.681l2.439 66.809a23.028 23.028 0 0 0 23.086 22.272c.285 0 .573-.005.856-.016a22.964 22.964 0 0 0 16.088-7.361 22.959 22.959 0 0 0 6.169-16.581l-2.44-66.809c-.203-5.578.053-15.339.548-20.89l4.113-46.168h7.502l10.961 52.048c1.396 6.631 3.819 17.359 5.402 23.914l14.842 61.478c2.515 10.419 11.748 17.696 22.453 17.696 1.828 0 3.659-.219 5.441-.651 12.39-2.99 20.036-15.504 17.045-27.895l-14.841-61.477a955.47 955.47 0 0 1-5.104-22.592l-12.938-61.434-3.897-43.554c.511.686.992 1.338 1.434 1.939l17.793 24.262c4.115 5.609 10.73 8.959 17.695 8.959 4.685 0 9.162-1.468 12.949-4.245a21.776 21.776 0 0 0 8.704-14.346 21.777 21.777 0 0 0-3.989-16.298zM299.295 31.976c.155-.174.302-.354.439-.542.978-.04 1.92-.073 2.794-.073 5.021 0 8.987 0 8.987 18.326 0 7.914-5.119 14.655-12.22 17.087V31.976zm-91.58 34.799c-7.101-2.432-12.22-9.173-12.22-17.087 0-18.326 3.965-18.326 8.985-18.326.898 0 1.867.034 2.876.076.111.153.234.299.358.443v34.894zm31.608 1.832c-.431-.594-.839-1.625-.337-3.167l3.683-11.334c-.02.053-.047-.034-.07-.066l-9.573-6.942c-1.975-1.436-1.608-3.148-1.448-3.639.159-.491.869-2.093 3.311-2.093h11.918c-.055-.003.018-.056.042-.089l3.645-11.247c.756-2.321 2.498-2.502 3.014-2.502.516 0 2.258.181 3.013 2.5l3.684 11.336c-.015-.054.057-.002.097.012l11.823-.01c2.441 0 3.151 1.602 3.311 2.093.16.49.526 2.203-1.447 3.639l-9.642 7.006c.04-.035.017.055.018.095l3.662 11.244c.501 1.54.093 2.571-.338 3.165a2.842 2.842 0 0 1-2.328 1.176c-.736 0-1.48-.269-2.21-.799l-9.642-7.006-9.646 7.006c-1.659 1.203-3.572.956-4.54-.378z"/><path d="M135.144 192.509c28.559 0 51.794-23.242 51.794-51.811 0-28.567-23.234-51.809-51.794-51.809-28.567 0-51.808 23.241-51.808 51.809 0 28.569 23.24 51.811 51.808 51.811z"/></svg>