<svg xmlns="http://www.w3.org/2000/svg" x="0px" y="0px" width="26px" height="26px" viewBox="-13 0 13 853.23">

	<path d="M605.208,272.115c0,22.091-17.908,40-40,40H41.403c-22.092,0-40-17.909-40-40l0,0c0-22.091,17.908-40,40-40h523.805
		C587.299,232.115,605.208,250.024,605.208,272.115L605.208,272.115z"/>
	<path d="M605.208,427.115c0,22.092-17.908,40-40,40H41.403c-22.092,0-40-17.908-40-40l0,0c0-22.091,17.908-40,40-40h523.805
		C587.299,387.115,605.208,405.024,605.208,427.115L605.208,427.115z"/>
	<path d="M605.208,581.115c0,22.092-17.908,40-40,40H41.403c-22.092,0-40-17.908-40-40l0,0c0-22.092,17.908-40,40-40h523.805
		C587.299,541.115,605.208,559.023,605.208,581.115L605.208,581.115z"/>

</svg>
