<?xml version="1.0" encoding="utf-8"?>
<!-- Generator: Adobe Illustrator 15.0.0, SVG Export Plug-In . SVG Version: 6.00 Build 0)  -->
<!DOCTYPE svg PUBLIC "-//W3C//DTD SVG 1.1//EN" "http://www.w3.org/Graphics/SVG/1.1/DTD/svg11.dtd">
<svg version="1.1" id="Capa_1" xmlns="http://www.w3.org/2000/svg" xmlns:xlink="http://www.w3.org/1999/xlink" x="0px" y="0px"
	 width="45.906px" height="45.907px" viewBox="0 0 45.906 45.907" enable-background="new 0 0 45.906 45.907" xml:space="preserve">
<circle fill="#EFEFEF" cx="22.953" cy="22.954" r="22.677"/>
<g>
	<path fill="#1A6191" d="M30.2,23.099c-0.338,0-0.665,0.035-0.983,0.1l-2.511-4.347c0.775-0.88,1.25-2.035,1.25-3.299
		c0-2.758-2.243-5.003-5.003-5.003c-2.758,0-5.003,2.245-5.003,5.003c0,1.264,0.476,2.417,1.25,3.299L16.691,23.2
		c-0.319-0.064-0.648-0.101-0.985-0.101c-2.758,0-5.003,2.246-5.003,5.003c0,2.76,2.245,5.004,5.003,5.004
		c2.199,0,4.067-1.427,4.736-3.402h5.021c0.67,1.976,2.538,3.402,4.736,3.402c2.758,0,5.003-2.244,5.003-5.004
		C35.203,25.344,32.958,23.099,30.2,23.099z M19.459,24.806l2.51-4.348c0.318,0.063,0.646,0.1,0.983,0.1s0.665-0.035,0.983-0.1
		l2.51,4.348c-0.432,0.489-0.768,1.064-0.982,1.695h-5.021C20.229,25.871,19.891,25.295,19.459,24.806z"/>
</g>
</svg>
