<svg xmlns="http://www.w3.org/2000/svg" viewBox="0 0 45.906 45.907"><circle fill="#EFEFEF" cx="22.953" cy="22.954" r="22.677"/><path fill="#1A6191" d="M30.2 23.099c-.338 0-.665.035-.983.1l-2.511-4.347a4.98 4.98 0 0 0 1.25-3.299 5.008 5.008 0 0 0-5.003-5.003 5.01 5.01 0 0 0-5.003 5.003c0 1.264.476 2.417 1.25 3.299L16.691 23.2a5.001 5.001 0 0 0-.985-.101 5.01 5.01 0 0 0-5.003 5.003 5.01 5.01 0 0 0 5.003 5.004 5.007 5.007 0 0 0 4.736-3.402h5.021a5.008 5.008 0 0 0 4.736 3.402 5.01 5.01 0 0 0 5.003-5.004 5.008 5.008 0 0 0-5.002-5.003zm-10.741 1.707l2.51-4.348a4.9 4.9 0 0 0 1.966 0l2.51 4.348a4.972 4.972 0 0 0-.982 1.695h-5.021a4.967 4.967 0 0 0-.983-1.695z"/></svg>