<?xml version="1.0" encoding="utf-8"?><svg width="469" height="451" viewBox="0 0 469 451" xmlns="http://www.w3.org/2000/svg" xmlns:xlink="http://www.w3.org/1999/xlink"><svg viewBox="0 0 31.112 31.112" width="18" height="18" fill="#fff" id="L1VzZXJzL3ZlYm1laGFuaWNhL0RvY3VtZW50cy9jb25jcmV0ZS1mYWN0b3J5L2Zyb250ZW5kL2ltZy9zcHJpdGUvaWNvbl9jbG9zZS0td2hpdGUuc3Zn" x="451" xmlns="http://www.w3.org/2000/svg"><path d="M31.112 1.414L29.698 0 15.556 14.142 1.414 0 0 1.414l14.142 14.142L0 29.698l1.414 1.414L15.556 16.97l14.142 14.142 1.414-1.414L16.97 15.556z"/></svg><svg viewBox="0 0 31.112 31.112" width="18" height="18" id="L1VzZXJzL3ZlYm1laGFuaWNhL0RvY3VtZW50cy9jb25jcmV0ZS1mYWN0b3J5L2Zyb250ZW5kL2ltZy9zcHJpdGUvaWNvbl9jbG9zZS5zdmc=" x="451" y="18" xmlns="http://www.w3.org/2000/svg"><path d="M31.112 1.414L29.698 0 15.556 14.142 1.414 0 0 1.414l14.142 14.142L0 29.698l1.414 1.414L15.556 16.97l14.142 14.142 1.414-1.414L16.97 15.556z"/></svg><svg viewBox="0 0 451 451" width="451" height="451" id="L1VzZXJzL3ZlYm1laGFuaWNhL0RvY3VtZW50cy9jb25jcmV0ZS1mYWN0b3J5L2Zyb250ZW5kL2ltZy9zcHJpdGUvaWNvbl9zZWFyY2guc3Zn" xmlns="http://www.w3.org/2000/svg"><path d="M447.05 428l-109.6-109.6c29.4-33.8 47.2-77.9 47.2-126.1C384.65 86.2 298.35 0 192.35 0 86.25 0 .05 86.3.05 192.3s86.3 192.3 192.3 192.3c48.2 0 92.3-17.8 126.1-47.2L428.05 447c2.6 2.6 6.1 4 9.5 4s6.9-1.3 9.5-4c5.2-5.2 5.2-13.8 0-19zM26.95 192.3c0-91.2 74.2-165.3 165.3-165.3 91.2 0 165.3 74.2 165.3 165.3s-74.1 165.4-165.3 165.4c-91.1 0-165.3-74.2-165.3-165.4z"/></svg></svg>